PathFileType	4	(X/Y/Z)	C:/Users/alexw/Dropbox/ABI/BIOMENG 771 Files/BIOMENG_771/KinematicsLab/Left.trc	
DataRate	CameraRate	NumFrames	NumMarkers	Units	OrigDataRate	OrigDataStartFrame	OrigNumFrames	
120.00	120.00	19	8	mm	120.00	373	1491	
Frame#	Time	RAsis			LAsis			RPsis			LPsis			LThighSuperior			LThighInferior			LThighLateral			LPatella			
		X1	Y1	Z1	X2	Y2	Z2	X3	Y3	Z3	X4	Y4	Z4	X5	Y5	Z5	X6	Y6	Z6	X7	Y7	Z7	X8	Y8	Z8	

373	3.100	-622.77051	95.65759	995.45416	-370.09253	174.93542	1032.22839	-565.00311	336.16891	996.28088	-509.49097	355.80984	1003.11090	-273.13593	228.78038	904.38165	-148.78307	119.87051	722.30084	-229.20370	96.26356	822.07867	-130.71465	38.49165	655.84149 
374	3.108	-622.09460	96.27483	995.56348	-369.60373	175.84827	1032.17664	-564.73145	336.82278	996.12817	-509.22366	356.47070	1002.98901	-273.32471	228.91077	902.83698	-151.11174	119.86034	719.28003	-230.68413	96.43182	819.92413	-133.72600	38.78026	652.58319 
375	3.117	-621.47870	96.94306	995.67438	-369.13504	176.72144	1032.08130	-564.51282	337.44070	995.91498	-509.14352	357.18314	1002.88940	-273.49136	229.27313	901.08356	-153.72353	119.84767	716.28845	-232.21625	96.57443	817.66797	-136.91397	38.70586	649.29883 
376	3.125	-620.98010	97.62959	995.74908	-368.68930	177.58846	1031.94031	-564.38837	338.23981	995.84290	-508.71320	357.82748	1002.62048	-273.72906	229.29558	899.53192	-156.18953	119.80049	713.34753	-233.78802	96.83111	815.38867	-140.52672	39.06853	646.06946 
377	3.133	-620.48425	98.35011	995.80585	-368.22342	178.53973	1031.86694	-563.96820	338.99591	995.79266	-508.32355	358.51309	1002.48309	-273.86060	229.57303	897.95721	-158.73555	119.93873	710.29907	-235.31401	97.26333	813.15759	-144.03590	39.42983	642.68250 
378	3.142	-619.90826	99.03519	995.76428	-367.85944	179.21422	1031.80457	-563.66589	339.55350	995.72803	-508.08868	359.12534	1002.42340	-274.10922	229.78535	896.15521	-161.26747	120.12493	707.09100	-236.75728	97.52233	810.73639	-147.52373	39.53035	639.19495 
379	3.150	-619.41980	99.78146	995.59979	-367.49146	179.82143	1031.71191	-563.36084	340.22437	995.75452	-507.78876	359.82581	1002.32495	-274.33517	230.05498	894.47174	-163.87146	120.39736	703.92908	-238.44208	97.84978	808.32599	-150.91707	39.91440	635.86487 
380	3.158	-618.89764	100.48318	995.44159	-367.00583	180.44781	1031.56787	-562.99866	341.01611	995.75623	-507.26486	360.46991	1002.26697	-274.58176	230.34755	892.77264	-166.68097	120.57136	700.62506	-240.01543	98.15166	805.96088	-154.51141	40.02834	632.21094 
381	3.167	-618.41296	101.08659	995.23511	-366.47293	181.09499	1031.41907	-562.53979	341.66855	995.68854	-506.87845	361.02124	1002.18140	-274.93762	230.63916	891.02728	-169.50246	120.84692	697.34454	-241.63843	98.46700	803.37793	-158.36414	40.29430	628.70178 
382	3.175	-617.92706	101.62399	995.28052	-366.11731	181.60165	1031.30847	-562.18079	342.28610	995.65173	-506.57419	361.47327	1002.11603	-275.30981	230.75333	889.11322	-172.23285	121.05795	694.14764	-243.34038	98.86222	800.91760	-162.47368	40.55078	625.20123 
383	3.183	-617.55701	102.19888	995.36285	-365.77005	181.97296	1031.28430	-561.61163	342.84210	995.70404	-505.90195	362.06284	1002.09155	-275.56686	230.84047	887.51031	-175.02397	121.39306	691.01501	-245.22134	99.06517	798.43243	-166.43781	40.82600	621.77246 
384	3.192	-617.16541	102.85540	995.34772	-365.33994	182.41026	1031.25562	-561.14832	343.39185	995.75055	-505.45459	362.58456	1002.05286	-276.02197	230.97424	885.73431	-177.94075	121.71887	687.82806	-246.94983	99.47147	795.94263	-170.36664	41.15480	618.43933 
385	3.200	-616.79297	103.43840	995.41309	-364.84122	182.84236	1031.27893	-560.76617	343.92688	995.82800	-505.10471	363.09286	1002.01892	-276.58240	231.01746	884.07562	-180.91261	122.10977	684.67853	-248.73497	99.56325	793.40021	-174.29271	41.61305	615.09894 
386	3.208	-616.46289	104.06126	995.44135	-364.35303	183.25414	1031.25305	-560.17395	344.59259	995.75104	-504.43280	363.56201	1002.00043	-277.12668	230.92285	882.40796	-184.01022	122.44781	681.42529	-250.52008	99.78500	791.06085	-178.41531	42.18495	611.58313 
387	3.217	-616.09271	104.69625	995.52344	-363.87064	183.66640	1031.17261	-559.60358	345.09866	995.82440	-503.89883	363.98975	1001.97369	-277.61850	230.67746	880.87762	-187.11055	122.91976	678.14972	-252.08981	100.04768	788.68457	-182.67830	42.63449	607.91724 
388	3.225	-615.78040	105.39188	995.65381	-363.45865	184.00354	1031.08130	-559.31433	345.53171	995.97089	-503.24161	364.34286	1001.73108	-278.05795	230.43980	879.29053	-190.37646	123.36166	674.88635	-253.81790	100.28811	786.39569	-186.92065	43.20659	604.23578 
389	3.233	-615.60150	105.98427	995.80621	-363.08963	184.24406	1031.04431	-558.70532	345.95084	996.04480	-502.51181	364.73425	1001.70990	-278.60284	230.05243	877.82422	-193.80081	123.68076	671.78772	-255.50563	100.35213	784.31213	-191.40097	43.80277	600.66370 
390	3.242	-615.39532	106.51711	995.94446	-362.74835	184.43962	1030.99097	-558.02625	346.45654	995.92688	-502.15762	365.07996	1001.73871	-279.27533	229.71532	876.35522	-197.48563	123.86303	668.77625	-257.39395	100.38335	782.20007	-195.96552	44.28399	597.17712 
391	3.250	-615.20227	106.88247	996.02142	-362.40649	184.61075	1030.84827	-557.67090	346.78973	995.96631	-501.68069	365.38016	1001.68182	-280.09927	229.20667	874.86127	-201.20772	124.08737	665.69489	-259.23709	100.22552	779.98804	-200.84468	44.77428	593.80054 
